<svg width="18" height="16" viewBox="0 0 18 16" fill="none" xmlns="http://www.w3.org/2000/svg">
<path fill-rule="evenodd" clip-rule="evenodd" d="M0.430405 0.17808C0.69998 -0.00873528 1.04403 -0.0514847 1.35112 0.0636766L9 2.93201L16.6489 0.0636766C16.956 -0.0514847 17.3 -0.00873528 17.5696 0.17808C17.8392 0.364895 18 0.672026 18 1.00001V12C18 12.4169 17.7414 12.79 17.3511 12.9363L9.37273 15.9282C9.30798 15.9543 9.23989 15.9737 9.16927 15.9857C9.05601 16.0053 8.93837 16.0055 8.82127 15.9841C8.75402 15.9719 8.68912 15.9531 8.62727 15.9282L0.648877 12.9363C0.258573 12.79 0 12.4169 0 12V1.00001C0 0.672026 0.16083 0.364895 0.430405 0.17808ZM10 13.557L16 11.307V2.44301L10 4.69301V13.557ZM8 4.69301V13.557L2 11.307V2.44301L8 4.69301Z" fill="current"/>
</svg>
