<svg width="20" height="20" viewBox="0 0 20 20" fill="none" xmlns="http://www.w3.org/2000/svg">
<path d="M6 5H4V7H6V5Z" fill="current"/>
<path d="M4 9H6V11H4V9Z" fill="current"/>
<path d="M10 9H8V11H10V9Z" fill="current"/>
<path d="M8 5H10V7H8V5Z" fill="current"/>
<path fill-rule="evenodd" clip-rule="evenodd" d="M0 1C0 0.447715 0.447715 0 1 0H13C13.5523 0 14 0.447715 14 1V6.38197L19.4472 9.10557C19.786 9.27497 20 9.62123 20 10V19C20 19.5523 19.5523 20 19 20H1C0.447715 20 0 19.5523 0 19V1ZM6 18H8V15H6V18ZM10 18V14C10 13.4477 9.55228 13 9 13H5C4.44772 13 4 13.4477 4 14V18H2V2H12V18H10ZM14 18V8.61803L18 10.618V18H14Z" fill="current"/>
</svg>
