<svg width="20" height="19" viewBox="0 0 20 19" fill="none" xmlns="http://www.w3.org/2000/svg">
<path fill-rule="evenodd" clip-rule="evenodd" d="M13.2929 0.292893C13.6834 -0.0976311 14.3166 -0.0976311 14.7071 0.292893L17.7071 3.29289C18.0976 3.68342 18.0976 4.31658 17.7071 4.70711L9.20711 13.2071C9.09733 13.3169 8.96351 13.3996 8.81623 13.4487L4.31623 14.9487C3.95689 15.0685 3.56073 14.9749 3.29289 14.7071C3.02506 14.4393 2.93154 14.0431 3.05132 13.6838L4.55132 9.18377C4.60041 9.03649 4.68312 8.90267 4.79289 8.79289L13.2929 0.292893ZM15.5858 4L15 4.58579L13.4142 3L14 2.41421L15.5858 4ZM13.5858 6L12 4.41421L6.37403 10.0402L5.58114 12.4189L7.95982 11.626L13.5858 6Z" fill="current"/>
<path d="M1 17C0.447715 17 0 17.4477 0 18C0 18.5523 0.447715 19 1 19L19 19C19.5523 19 20 18.5523 20 18C20 17.4477 19.5523 17 19 17L1 17Z" fill="current"/>
</svg>
